HIERARCHY
ROOT hip
{
	OFFSET 0.000000 0.000000 0.000000
	CHANNELS 6 Xposition Yposition Zposition Xrotation Zrotation Yrotation 
	JOINT abdomen
	{
		OFFSET 0.000000 3.422050 0.000000
		CHANNELS 3 Xrotation Zrotation Yrotation 
		JOINT chest
		{
			OFFSET 0.000000 8.486693 -0.684411
			CHANNELS 3 Xrotation Zrotation Yrotation 
			JOINT neck
			{
				OFFSET 0.000000 10.266162 -0.273764
				CHANNELS 3 Xrotation Zrotation Yrotation 
				JOINT head
				{
					OFFSET 0.000000 3.148285 0.000000
					CHANNELS 3 Xrotation Zrotation Yrotation 
					End Site
					{
						OFFSET 0.000000 3.148289 0.000000
					}
				}
			}
			JOINT lCollar
			{
				OFFSET 3.422053 6.707223 -0.821293
				CHANNELS 3 Yrotation Zrotation Xrotation 
				JOINT lShldr
				{
					OFFSET 3.285171 0.000000 0.000000
					CHANNELS 3 Zrotation Yrotation Xrotation 
					JOINT lForeArm
					{
						OFFSET 10.129278 0.000000 0.000000
						CHANNELS 3 Yrotation Zrotation Xrotation 
						JOINT lHand
						{
							OFFSET 8.486692 0.000000 0.000000
							CHANNELS 3 Zrotation Yrotation Xrotation 
							End Site
							{
								OFFSET 4.106464 0.000000 0.000000
							}
						}
					}
				}
			}
			JOINT rCollar
			{
				OFFSET -3.558935 6.707223 -0.821293
				CHANNELS 3 Yrotation Zrotation Xrotation 
				JOINT rShldr
				{
					OFFSET -3.148289 0.000000 0.000000
					CHANNELS 3 Zrotation Yrotation Xrotation 
					JOINT rForeArm
					{
						OFFSET -10.266159 0.000000 0.000000
						CHANNELS 3 Yrotation Zrotation Xrotation 
						JOINT rHand
						{
							OFFSET -8.349810 0.000000 0.000000
							CHANNELS 3 Zrotation Yrotation Xrotation 
							End Site
							{
								OFFSET -4.106464 0.000000 0.000000
							}
						}
					}
				}
			}
		}
	}
	JOINT lThigh
	{
		OFFSET 5.338403 -1.642589 1.368821
		CHANNELS 3 Xrotation Zrotation Yrotation 
		JOINT lShin
		{
			OFFSET -2.053232 -20.121670 0.000000
			CHANNELS 3 Xrotation Zrotation Yrotation 
			JOINT lFoot
			{
				OFFSET 0.000000 -19.300380 -1.231939
				CHANNELS 3 Xrotation Yrotation Zrotation 
				End Site
				{
					OFFSET 0.000000 -2.463878 4.653993
				}
			}
		}
	}
	JOINT rThigh
	{
		OFFSET -5.338403 -1.642589 1.368821
		CHANNELS 3 Xrotation Zrotation Yrotation 
		JOINT rShin
		{
			OFFSET 2.053232 -20.121670 0.000000
			CHANNELS 3 Xrotation Zrotation Yrotation 
			JOINT rFoot
			{
				OFFSET 0.000000 -19.300380 -1.231939
				CHANNELS 3 Xrotation Yrotation Zrotation 
				End Site
				{
					OFFSET 0.000000 -2.463878 4.653993
				}
			}
		}
	}
}
MOTION
Frames: 16
Frame Time: 0.049989
0.000000 43.528500 0.000000 0.000000 0.000000 0.000000 0.000000 0.000000 0.000000 0.000000 0.000000 0.000000 0.000000 0.000000 0.000000 0.000000 0.000000 0.000000 0.000000 0.000000 0.000000 0.000000 0.000000 0.000000 0.000000 0.000000 0.000000 0.000000 0.000000 0.000000 0.000000 0.000000 0.000000 0.000000 0.000000 0.000000 0.000000 0.000000 0.000000 0.000000 0.000000 0.000000 0.000000 0.000000 0.000000 0.000000 0.000000 0.000000 0.000000 0.000000 0.000000 0.000000 0.000000 0.000000 0.000000 0.000000 0.000000 0.000000 0.000000 0.000000 
-1.336662 24.439732 -13.375648 -9.002075 0.000000 0.000000 41.785355 0.028622 -0.099498 29.294512 0.644575 0.126901 29.011677 0.454235 -0.003487 -6.830888 4.535671 -0.009638 -37.862202 5.768519 15.481804 -29.850161 -11.774427 -51.454758 -124.677673 4.926762 44.337143 3.398593 -16.072248 -29.185320 36.064114 -4.958844 15.364780 29.104307 11.574428 -51.622475 123.595734 -5.405645 44.228523 -1.809064 -25.391193 9.518142 1.200404 14.481956 6.453853 92.482559 4.991737 -6.952153 57.603939 14.923544 9.373164 0.461834 -15.611058 -6.418521 92.694427 -5.133991 6.960085 56.931870 -14.255102 -10.286644 
-1.336662 24.439732 -13.522138 -9.923701 0.000000 0.000000 43.013062 0.028607 -0.099399 30.062840 0.644550 0.126698 28.834501 0.455354 -0.130251 -9.267371 4.535587 -0.009607 -37.273369 7.426364 14.532061 -29.828751 -11.758488 -51.466766 -124.691864 4.920042 44.338326 3.576924 -15.270287 -29.990063 35.601452 -6.718777 14.444395 29.104307 11.574427 -51.622471 123.609444 -5.399373 44.229778 -1.387921 -26.269007 8.640005 1.750412 14.562513 6.490407 92.482559 4.991737 -6.952153 57.740158 14.975950 9.479592 1.012659 -15.669868 -6.432435 92.694427 -5.133991 6.960084 56.931870 -14.255102 -10.286644 
-1.336662 24.439732 -13.668628 -10.845989 0.000000 0.000000 44.242340 0.028589 -0.099299 30.831547 0.644528 0.126495 28.657206 0.456081 -0.257096 -11.716236 4.535503 -0.009573 -36.652233 9.079572 13.557911 -29.807343 -11.742541 -51.478760 -124.706047 4.913322 44.339508 3.743111 -14.465159 -30.790070 35.106625 -8.477064 13.502625 29.104311 11.574430 -51.622475 123.623177 -5.393102 44.231033 -0.947937 -27.141884 7.746815 2.300813 14.642746 6.527782 92.482559 4.991737 -6.952154 57.876312 15.028602 9.585918 1.563797 -15.728559 -6.446943 92.694427 -5.133991 6.960085 56.931870 -14.255103 -10.286643 
-1.336662 24.439732 -13.815117 -11.768808 0.000000 0.000000 45.472881 0.028569 -0.099200 31.600561 0.644509 0.126291 28.479809 0.456416 -0.384020 -14.175328 4.535421 -0.009535 -35.997658 10.726374 12.557956 -29.785936 -11.726590 -51.490734 -124.720222 4.906600 44.340687 3.897255 -13.657179 -31.585537 34.578468 -10.231923 12.537945 29.104307 11.574428 -51.622475 123.636887 -5.386831 44.232285 -0.488642 -28.009304 6.838067 2.851583 14.722644 6.565973 92.482559 4.991737 -6.952153 58.012390 15.081495 9.692146 2.115225 -15.787127 -6.462045 92.694443 -5.133991 6.960085 56.931870 -14.255102 -10.286644 
-1.336662 24.439732 -13.961606 -12.692052 0.000000 0.000000 46.704426 0.028547 -0.099102 32.369831 0.644492 0.126087 28.302301 0.456358 -0.511022 -16.642429 4.535340 -0.009493 -35.308453 12.364950 11.530766 -29.764540 -11.710636 -51.502724 -124.734406 4.899879 44.341862 4.039459 -12.846666 -32.376648 34.015720 -11.981506 11.548758 29.104307 11.574428 -51.622475 123.650604 -5.380555 44.233528 -0.009563 -28.870745 5.913258 3.402699 14.802198 6.604978 92.482552 4.991737 -6.952153 58.148399 15.134634 9.798267 2.666917 -15.845561 -6.477738 92.694427 -5.133991 6.960085 56.931870 -14.255102 -10.286643 
-1.336662 24.439732 -14.108096 -13.615597 0.000000 0.000000 47.936684 0.028523 -0.099004 33.139259 0.644478 0.125882 28.124681 0.455905 -0.638099 -19.115282 4.535261 -0.009448 -34.583359 13.993429 10.474857 -29.743149 -11.694677 -51.514698 -124.748581 4.893160 44.343040 4.169824 -12.033936 -33.163620 33.417072 -13.723915 10.533406 29.104307 11.574428 -51.622475 123.664330 -5.374281 44.234776 0.489777 -29.725657 4.971872 3.954136 14.881391 6.644791 92.482574 4.991737 -6.952153 58.284355 15.188017 9.904290 3.218850 -15.903855 -6.494023 92.694443 -5.133992 6.960085 56.931877 -14.255103 -10.286647 
-1.336662 24.439732 -14.254585 -14.539320 0.000000 0.000000 49.169361 0.028496 -0.098906 33.908806 0.644467 0.125678 27.946964 0.455059 -0.765249 -21.591608 4.535185 -0.009400 -33.821083 15.609883 9.388721 -29.721760 -11.678714 -51.526661 -124.762779 4.886438 44.344215 4.288448 -11.219307 -33.946625 32.781143 -15.457213 9.490185 29.104307 11.574428 -51.622478 123.678032 -5.368003 44.236015 1.009861 -30.573523 4.013404 4.505869 14.960217 6.685409 92.482559 4.991737 -6.952153 58.420242 15.241642 10.010206 3.770998 -15.961997 -6.510897 92.694427 -5.133991 6.960085 56.931870 -14.255103 -10.286645 
-1.336662 24.439732 -14.401074 -15.463106 0.000000 0.000000 50.402184 0.028468 -0.098809 34.678375 0.644459 0.125473 27.769146 0.453817 -0.892471 -24.069082 4.535108 -0.009347 -33.020294 17.212351 8.270808 -29.700367 -11.662744 -51.538624 -124.776955 4.879716 44.345390 4.395431 -10.403088 -34.725861 32.106419 -17.179399 8.417300 29.104307 11.574428 -51.622475 123.691750 -5.361731 44.237259 1.551170 -31.413757 3.037334 5.057877 15.038661 6.726825 92.482559 4.991737 -6.952153 58.556065 15.295516 10.116022 4.323337 -16.019981 -6.528357 92.694427 -5.133991 6.960085 56.931870 -14.255102 -10.286644 
-1.336662 24.439732 -14.547564 -16.386829 0.000000 0.000000 51.634880 0.028438 -0.098713 35.447918 0.644453 0.125268 27.591225 0.452179 -1.019760 -26.545404 4.535036 -0.009292 -32.179623 18.798815 7.119547 -29.678989 -11.646771 -51.550575 -124.791138 4.872997 44.346569 4.490869 -9.585596 -35.501511 31.391373 -18.888430 7.312903 29.104303 11.574426 -51.622475 123.705475 -5.355459 44.238503 2.114187 -32.245804 2.043147 5.610134 15.116718 6.769039 92.482559 4.991737 -6.952153 58.691811 15.349625 10.221727 4.875842 -16.077803 -6.546404 92.694427 -5.133990 6.960084 56.931870 -14.255101 -10.286644 
-1.336662 24.439732 -14.694054 -17.310368 0.000000 0.000000 52.867130 0.028405 -0.098617 36.217358 0.644450 0.125064 27.413208 0.450145 -1.147117 -29.018250 4.534965 -0.009234 -31.297668 20.367228 5.933337 -29.657610 -11.630793 -51.562515 -124.805313 4.866271 44.347729 4.574861 -8.767148 -36.273800 30.634352 -20.582220 6.175080 29.104307 11.574428 -51.622475 123.719193 -5.349182 44.239746 2.699391 -33.069092 1.030332 6.162615 15.194372 6.812042 92.482559 4.991737 -6.952153 58.827492 15.403975 10.327329 5.428490 -16.135452 -6.565037 92.694443 -5.133991 6.960085 56.931873 -14.255103 -10.286644 
-1.336662 24.439732 -14.840543 -18.233614 0.000000 0.000000 54.098675 0.028370 -0.098522 36.986614 0.644450 0.124859 27.235096 0.447713 -1.274539 -31.485359 4.534899 -0.009173 -30.373005 21.915508 4.710570 -29.636236 -11.614809 -51.574455 -124.819496 4.859551 44.348896 4.647498 -7.948048 -37.042877 29.833662 -22.258650 5.001856 29.104307 11.574428 -51.622475 123.732910 -5.342905 44.240978 3.307255 -33.883007 -0.001615 6.715298 15.271615 6.855831 92.482559 4.991737 -6.952153 58.963104 15.458568 10.432825 5.981254 -16.192919 -6.584249 92.694427 -5.133991 6.960085 56.931870 -14.255102 -10.286644 
-1.336662 24.439732 -14.987032 -19.156435 0.000000 0.000000 55.329224 0.028334 -0.098428 37.755638 0.644453 0.124654 27.056890 0.444884 -1.402023 -33.944443 4.534833 -0.009109 -29.404190 23.441525 3.449627 -29.614868 -11.598824 -51.586391 -124.833664 4.852828 44.350063 4.708873 -7.128603 -37.808937 28.987522 -23.915541 3.791196 29.104307 11.574428 -51.622475 123.746620 -5.336631 44.242218 3.938246 -34.686981 -1.053194 7.268155 15.348431 6.900398 92.482552 4.991736 -6.952153 59.098629 15.513395 10.538206 6.534110 -16.250193 -6.604040 92.694427 -5.133991 6.960084 56.931870 -14.255102 -10.286644 
-1.336662 24.439732 -15.133522 -20.078720 0.000000 0.000000 56.558495 0.028295 -0.098335 38.524345 0.644458 0.124450 26.878593 0.441656 -1.529568 -36.393311 4.534773 -0.009043 -28.389811 24.943138 2.148906 -29.593498 -11.582829 -51.598309 -124.847855 4.846105 44.351219 4.759079 -6.309124 -38.572170 28.094099 -25.550694 2.541017 29.104311 11.574430 -51.622475 123.760338 -5.330358 44.243454 4.592814 -35.480370 -2.124889 7.821164 15.424812 6.945740 92.482559 4.991737 -6.952153 59.234093 15.568465 10.643481 7.087029 -16.307264 -6.624404 92.694427 -5.133991 6.960085 56.931870 -14.255102 -10.286644 
-1.336662 24.439732 -15.280011 -21.000351 0.000000 0.000000 57.786201 0.028255 -0.098243 39.292667 0.644466 0.124245 26.700203 0.438030 -1.657171 -38.829788 4.534713 -0.008975 -27.328434 26.418165 0.806825 -29.572147 -11.566836 -51.610237 -124.862022 4.839383 44.352386 4.798206 -5.489913 -39.332760 27.151510 -27.161877 1.249192 29.104307 11.574428 -51.622475 123.774055 -5.324080 44.244686 5.271403 -36.262600 -3.217171 8.374299 15.500751 6.991849 92.482559 4.991737 -6.952153 59.369488 15.623773 10.748644 7.639994 -16.364136 -6.645346 92.694427 -5.133991 6.960085 56.931870 -14.255102 -10.286644 
-1.336662 24.439732 -15.153053 -20.201643 0.000000 0.000000 56.722282 0.028290 -0.098323 38.626808 0.644459 0.124422 26.521738 0.434004 -1.784831 -36.718929 4.534764 -0.009034 -28.251040 25.141392 1.972386 -29.550793 -11.550837 -51.622147 -124.876213 4.832659 44.353550 4.764934 -6.199873 -38.673729 27.971306 -25.766954 2.371227 29.104307 11.574427 -51.622471 123.787766 -5.317803 44.245914 4.681897 -35.585335 -2.269327 7.894907 15.434962 6.951843 92.482559 4.991737 -6.952153 59.360466 15.620079 10.741637 7.160758 -16.314865 -6.627166 92.694427 -5.133991 6.960084 56.931866 -14.255101 -10.286643 
